#Comment line ignore any data following # character 
#Hierarchical Translation and Rotation (.htr) file 
[Header]	
#Header keywords are followed by a single value 
FileType HTR		#Single word string
DataType HTRS		#Translation followed by rotation and scale data
FileVersion 1		#integer
NumSegments 64		#integer
NumFrames 3		#integer
DataFrameRate 30		#integer, data frame rate in this file
EulerRotationOrder ZYX
CalibrationUnits mm
RotationUnits Degrees
GlobalAxisofGravity Y
BoneLengthAxis Y
ScaleFactor 1.00
[SegmentNames&Hierarchy]
#CHILD	PARENT
Pinger_Root GLOBAL
Pelvis Pinger_Root
L_Hip Pelvis
R_Hip Pelvis
Rear_Leg01 Pelvis
Spine1 Pelvis
L_Leg01 L_Hip
L_Leg02 L_Leg01
L_Leg03 L_Leg02
L_Foot L_Leg03
L_Toe1_01 L_Foot
L_Toe2_01 L_Foot
L_Toe3_01 L_Foot
planeAlignerLeft L_Foot
L_Toe1_02 L_Toe1_01
L_Toe1_03 L_Toe1_02
L_Toe2_02 L_Toe2_01
L_Toe2_03 L_Toe2_02
L_Toe3_02 L_Toe3_01
L_Toe3_03 L_Toe3_02
planeLockWeightLeft planeAlignerLeft
R_Leg01 R_Hip
R_Leg02 R_Leg01
R_Leg03 R_Leg02
R_Foot R_Leg03
planeAlignerRight R_Foot
R_Toe1_01 R_Foot
R_Toe2_01 R_Foot
R_Toe3_01 R_Foot
planeLockWeightRight planeAlignerRight
R_Toe1_02 R_Toe1_01
R_Toe1_03 R_Toe1_02
R_Toe2_02 R_Toe2_01
R_Toe2_03 R_Toe2_02
R_Toe3_02 R_Toe3_01
R_Toe3_03 R_Toe3_02
Rear_Leg02 Rear_Leg01
Rear_Leg03 Rear_Leg02
Rear_Leg04 Rear_Leg03
Rear_Foot Rear_Leg04
planeAlignerCenter Rear_Foot
Rear_Toe1_01 Rear_Foot
Rear_Toe2_01 Rear_Foot
Rear_Toe3_01 Rear_Foot
planeLockWeightCenter planeAlignerCenter
Rear_Toe1_02 Rear_Toe1_01
Rear_Toe1_03 Rear_Toe1_02
Rear_Toe2_02 Rear_Toe2_01
Rear_Toe2_03 Rear_Toe2_02
Rear_Toe3_02 Rear_Toe3_01
Rear_Toe3_03 Rear_Toe3_02
Back_Bone Spine1
Head Spine1
Motor_Bone Back_Bone
Ping_Mechanism Back_Bone
BN_LookIK Head
bottomMouth Head
L_Mouth01 Head
L_mouthFront Head
mouthGun Head
R_Mouth01 Head
R_mouthFront Head
TopMouth Head
weapon_bone Head
[BasePosition]
#SegmentName Tx, Ty, Tz, Rx, Ry, Rz, BoneLength
Pinger_Root 0.000000 0.000000 0.000000 -90.000000 0.000000 0.000000 10.000000 
Pelvis 0.000000 0.000000 0.000000 0.000000 0.000000 0.000000 10.000000 
L_Hip 0.000000 0.000000 0.000000 0.000000 0.000000 0.000000 10.000000 
R_Hip 0.000000 0.000000 0.000000 0.000000 0.000000 0.000000 10.000000 
Rear_Leg01 0.000000 0.000000 0.000000 0.000000 0.000000 0.000000 10.000000 
Spine1 0.000000 0.000000 0.000000 0.000000 0.000000 0.000000 10.000000 
L_Leg01 0.000000 0.000000 0.000000 0.000000 0.000000 0.000000 10.000000 
L_Leg02 0.000000 0.000000 0.000000 0.000000 0.000000 0.000000 10.000000 
L_Leg03 0.000000 0.000000 0.000000 0.000000 0.000000 0.000000 10.000000 
L_Foot 0.000000 0.000000 0.000000 0.000000 0.000000 0.000000 10.000000 
L_Toe1_01 0.000000 0.000000 0.000000 0.000000 0.000000 0.000000 10.000000 
L_Toe2_01 0.000000 0.000000 0.000000 0.000000 0.000000 0.000000 10.000000 
L_Toe3_01 0.000000 0.000000 0.000000 0.000000 0.000000 0.000000 10.000000 
planeAlignerLeft 0.000000 0.000000 0.000000 0.000000 0.000000 0.000000 10.000000 
L_Toe1_02 0.000000 0.000000 0.000000 0.000000 0.000000 0.000000 10.000000 
L_Toe1_03 0.000000 0.000000 0.000000 0.000000 0.000000 0.000000 10.000000 
L_Toe2_02 0.000000 0.000000 0.000000 0.000000 0.000000 0.000000 10.000000 
L_Toe2_03 0.000000 0.000000 0.000000 0.000000 0.000000 0.000000 10.000000 
L_Toe3_02 0.000000 0.000000 0.000000 0.000000 0.000000 0.000000 10.000000 
L_Toe3_03 0.000000 0.000000 0.000000 0.000000 0.000000 0.000000 10.000000 
planeLockWeightLeft 0.000000 0.000000 0.000000 0.000000 0.000000 0.000000 10.000000 
R_Leg01 0.000000 0.000000 0.000000 0.000000 0.000000 0.000000 10.000000 
R_Leg02 0.000000 0.000000 0.000000 0.000000 0.000000 0.000000 10.000000 
R_Leg03 0.000000 0.000000 0.000000 0.000000 0.000000 0.000000 10.000000 
R_Foot 0.000000 0.000000 0.000000 0.000000 0.000000 0.000000 10.000000 
planeAlignerRight 0.000000 0.000000 0.000000 0.000000 0.000000 0.000000 10.000000 
R_Toe1_01 0.000000 0.000000 0.000000 0.000000 0.000000 0.000000 10.000000 
R_Toe2_01 0.000000 0.000000 0.000000 0.000000 0.000000 0.000000 10.000000 
R_Toe3_01 0.000000 0.000000 0.000000 0.000000 0.000000 0.000000 10.000000 
planeLockWeightRight 0.000000 0.000000 0.000000 0.000000 0.000000 0.000000 10.000000 
R_Toe1_02 0.000000 0.000000 0.000000 0.000000 0.000000 0.000000 10.000000 
R_Toe1_03 0.000000 0.000000 0.000000 0.000000 0.000000 0.000000 10.000000 
R_Toe2_02 0.000000 0.000000 0.000000 0.000000 0.000000 0.000000 10.000000 
R_Toe2_03 0.000000 0.000000 0.000000 0.000000 0.000000 0.000000 10.000000 
R_Toe3_02 0.000000 0.000000 0.000000 0.000000 0.000000 0.000000 10.000000 
R_Toe3_03 0.000000 0.000000 0.000000 0.000000 0.000000 0.000000 10.000000 
Rear_Leg02 0.000000 0.000000 0.000000 0.000000 0.000000 0.000000 10.000000 
Rear_Leg03 0.000000 0.000000 0.000000 0.000000 0.000000 0.000000 10.000000 
Rear_Leg04 0.000000 0.000000 0.000000 0.000000 0.000000 0.000000 10.000000 
Rear_Foot 0.000000 0.000000 0.000000 0.000000 0.000000 0.000000 10.000000 
planeAlignerCenter 0.000000 0.000000 0.000000 0.000000 0.000000 0.000000 10.000000 
Rear_Toe1_01 0.000000 0.000000 0.000000 0.000000 0.000000 0.000000 10.000000 
Rear_Toe2_01 0.000000 0.000000 0.000000 0.000000 0.000000 0.000000 10.000000 
Rear_Toe3_01 0.000000 0.000000 0.000000 0.000000 0.000000 0.000000 10.000000 
planeLockWeightCenter 0.000000 0.000000 0.000000 0.000000 0.000000 0.000000 10.000000 
Rear_Toe1_02 0.000000 0.000000 0.000000 0.000000 0.000000 0.000000 10.000000 
Rear_Toe1_03 0.000000 0.000000 0.000000 0.000000 0.000000 0.000000 10.000000 
Rear_Toe2_02 0.000000 0.000000 0.000000 0.000000 0.000000 0.000000 10.000000 
Rear_Toe2_03 0.000000 0.000000 0.000000 0.000000 0.000000 0.000000 10.000000 
Rear_Toe3_02 0.000000 0.000000 0.000000 0.000000 0.000000 0.000000 10.000000 
Rear_Toe3_03 0.000000 0.000000 0.000000 0.000000 0.000000 0.000000 10.000000 
Back_Bone 0.000000 0.000000 0.000000 0.000000 0.000000 0.000000 10.000000 
Head 0.000000 0.000000 0.000000 0.000000 0.000000 0.000000 10.000000 
Motor_Bone 0.000000 0.000000 0.000000 0.000000 0.000000 0.000000 10.000000 
Ping_Mechanism 0.000000 0.000000 0.000000 0.000000 0.000000 0.000000 10.000000 
BN_LookIK 0.000000 0.000000 0.000000 0.000000 0.000000 0.000000 10.000000 
bottomMouth 0.000000 0.000000 0.000000 0.000000 0.000000 0.000000 10.000000 
L_Mouth01 0.000000 0.000000 0.000000 0.000000 0.000000 0.000000 10.000000 
L_mouthFront 0.000000 0.000000 0.000000 0.000000 0.000000 0.000000 10.000000 
mouthGun 0.000000 0.000000 0.000000 0.000000 0.000000 0.000000 10.000000 
R_Mouth01 0.000000 0.000000 0.000000 0.000000 0.000000 0.000000 10.000000 
R_mouthFront 0.000000 0.000000 0.000000 0.000000 0.000000 0.000000 10.000000 
TopMouth 0.000000 0.000000 0.000000 0.000000 0.000000 0.000000 10.000000 
weapon_bone 0.000000 0.000000 0.000000 0.000000 0.000000 0.000000 10.000000 
#Beginning of Data. Separated by tabs
#Fr	Tx	Ty	Tz	Rx	Ry	Rz	SF
[Pinger_Root]
22 129.629364 0.000000 0.000000 -0.000075 -0.000000 -0.000020 129.629364
23 259.258728 0.000000 0.000000 -0.000075 -0.000000 -0.000020 259.258728
24 388.888580 0.000000 0.000000 -0.000075 -0.000000 -0.000020 388.888550
[Pelvis]
22 657.316040 -115.610229 5090.875977 -98.755920 -78.757103 45.056221 5134.437500
23 664.746765 -44.033253 5122.693359 -96.480469 -82.658020 43.129307 5165.831543
24 668.345215 27.126543 5153.670410 -90.663361 -87.744232 37.493649 5196.896973
[L_Hip]
22 5.766392 125.831482 872.656799 -178.589432 -81.709145 87.734573 881.701050
23 5.766392 125.831482 872.656799 -178.253311 -81.787758 87.381340 881.701050
24 5.766392 125.831482 872.656799 -178.253311 -81.787758 87.381340 881.701050
[R_Hip]
22 5.765438 125.836372 -872.654907 -1.272551 81.734520 87.837959 881.699829
23 5.765438 125.836372 -872.654907 -1.746690 81.787712 87.381248 881.699829
24 5.765438 125.836372 -872.654907 -1.746690 81.787712 87.381248 881.699829
[Rear_Leg01]
22 -192.298416 -925.602966 -0.001907 166.009216 -14.987324 -158.437408 945.367432
23 -192.298416 -925.602966 -0.001907 165.310471 -7.309644 -158.928528 945.367432
24 -192.298416 -925.602966 -0.001907 166.611176 0.063999 -157.658600 945.367432
[Spine1]
22 290.604584 5.007505 0.000477 42.008476 -18.629953 11.213904 290.647736
23 290.604584 5.007505 0.000477 41.886581 -19.599140 15.369226 290.647736
24 290.604584 5.007505 0.000477 41.779030 -20.522259 20.714794 290.647736
[L_Leg01]
22 761.932007 -0.002384 -0.069261 55.265362 -37.516121 -64.145699 761.932068
23 761.932007 -0.002384 -0.069261 57.709068 -34.338600 -66.081688 761.932068
24 761.932007 -0.002384 -0.069261 60.159897 -30.560398 -67.797691 761.932068
[L_Leg02]
22 1441.140503 -0.000954 -0.000715 -1.489957 0.501387 -95.964134 1441.140503
23 1441.140503 -0.000954 -0.000715 -1.472048 0.564439 -97.155487 1441.140503
24 1441.140503 -0.000954 -0.000715 -1.455453 0.627849 -98.346809 1441.140503
[L_Leg03]
22 1686.963989 -0.000715 -0.000954 0.029438 -0.010082 101.834541 1686.963989
23 1686.963989 -0.000715 -0.000954 0.039810 -0.013828 99.469910 1686.963989
24 1686.963989 -0.000715 -0.000954 0.050843 -0.009833 96.368271 1686.963989
[L_Foot]
22 3041.570068 -30.715107 11.297464 -6.275243 15.326520 48.230198 3041.746094
23 3041.570068 -30.715107 11.297464 -7.092076 15.546315 51.240917 3041.746094
24 3041.570068 -30.715107 11.297464 -7.896743 15.807160 54.251637 3041.746094
[L_Toe1_01]
22 -188.216690 -224.732346 -21.137953 89.715569 -3.435122 -165.433289 293.899567
23 -188.216690 -224.732346 -21.137953 89.731766 -3.495414 -165.417526 293.899567
24 -188.216690 -224.732346 -21.137953 89.683563 -3.337766 -165.223068 293.899567
[L_Toe2_01]
22 200.746536 -219.926590 148.838394 -77.565712 -14.420163 -44.299786 332.896027
23 200.746536 -219.926590 148.838394 -77.546547 -14.366260 -44.412472 332.896027
24 200.746536 -219.926590 148.838394 -77.527504 -14.312325 -44.525112 332.896027
[L_Toe3_01]
22 188.832520 -219.859131 -191.078659 -105.055313 14.347095 -45.080677 347.140900
23 188.832520 -219.859131 -191.078659 -105.123886 14.478391 -45.203262 347.140900
24 188.832520 -219.859131 -191.078659 -105.192787 14.609546 -45.326073 347.140900
[planeAlignerLeft]
22 -5.176404 -607.898804 30.325045 0.000000 -90.000000 -90.001633 608.676758
23 -7.425528 -609.162048 28.412939 0.000000 -89.960434 -90.001617 609.869507
24 -9.674678 -610.425293 26.500820 0.000000 -90.000000 -90.001633 611.076843
[L_Toe1_02]
22 413.761139 0.000477 0.000000 0.001412 -22.418087 0.001412 413.761139
23 413.761139 0.000477 0.000000 0.001412 -22.414724 0.001412 413.761139
24 413.761139 0.000477 0.000000 0.001412 -22.411362 0.001412 413.761139
[L_Toe1_03]
22 464.317322 0.000358 -0.000089 0.016627 81.904610 0.016627 464.317322
23 464.317322 0.000358 -0.000089 0.015836 81.499870 0.015836 464.317322
24 464.317322 0.000358 -0.000089 0.015118 81.095085 0.015118 464.317322
[L_Toe2_02]
22 342.235809 -0.000477 0.000238 0.001181 -77.601677 0.001181 342.235809
23 342.235809 -0.000477 0.000238 0.001181 -77.462029 0.001181 342.235809
24 342.235809 -0.000477 0.000238 0.001181 -77.588875 0.001181 342.235809
[L_Toe2_03]
22 420.210846 -0.000715 0.000000 -179.996063 78.414101 -179.992554 420.210846
23 420.210846 -0.000715 0.000000 -179.996109 78.324768 -179.992584 420.210846
24 420.210846 -0.000715 0.000000 -179.996353 77.802673 -179.992828 420.210846
[L_Toe3_02]
22 329.270111 0.000954 0.000000 0.001177 -81.832634 0.001177 329.270111
23 329.270111 0.000954 0.000000 0.001177 -81.784630 0.001177 329.270111
24 329.270111 0.000954 0.000000 0.001177 -81.736618 0.001177 329.270111
[L_Toe3_03]
22 439.137451 -0.001907 0.000954 -179.997787 73.377525 -179.994263 439.137451
23 439.137451 -0.001907 0.000954 -179.997818 73.282013 -179.994278 439.137451
24 439.137451 -0.001907 0.000954 -179.997833 73.186462 -179.994293 439.137451
[planeLockWeightLeft]
22 1000.000122 0.000000 -0.000226 -0.011826 -0.004376 0.005620 1000.000122
23 1000.000122 0.000000 -0.000294 -0.011826 -0.004376 0.005620 1000.000122
24 1000.000000 0.000000 -0.000362 -0.011826 -0.004376 0.005620 1000.000000
[R_Leg01]
22 761.455627 -0.001907 -0.000358 93.584618 -7.270327 95.006454 761.455688
23 761.455627 -0.001907 -0.000358 94.400620 -0.232753 95.253029 761.455688
24 761.455627 -0.001907 -0.000358 95.165512 8.529991 95.922401 761.455688
[R_Leg02]
22 1441.140625 0.000000 -0.000238 0.181944 -0.022601 -90.460587 1441.140625
23 1441.140625 0.000000 -0.000238 0.188621 -0.010304 -86.567932 1441.140625
24 1441.140625 0.000000 -0.000238 0.192767 -0.001005 -81.762978 1441.140625
[R_Leg03]
22 1686.963989 0.000954 0.001431 -0.094028 0.014364 84.748512 1686.963989
23 1686.963989 0.000954 0.001431 -0.102496 0.013284 82.651932 1686.963989
24 1686.963989 0.000954 0.001431 -0.110917 0.011895 80.556046 1686.963989
[R_Foot]
22 3041.560059 -30.531288 -11.204481 -4.373155 -20.144051 100.666763 3041.734131
23 3041.560059 -30.531288 -11.204481 -4.734993 -19.983971 102.001732 3041.734131
24 3041.560059 -30.531288 -11.204481 -5.092397 -19.816023 103.334213 3041.734131
[planeAlignerRight]
22 -8.530640 -711.673218 1.502837 0.000000 -89.951546 -90.004936 711.725891
23 -12.742713 -737.080261 4.066610 0.000000 -89.951546 -90.004936 737.201599
24 -16.954794 -762.487427 6.630396 0.000000 -89.951546 -90.004936 762.704712
[R_Toe1_01]
22 -188.383347 -224.864899 21.052242 90.818199 1.807998 -157.305664 294.101532
23 -188.383347 -224.864899 21.052242 90.903297 1.668279 -155.050522 294.101532
24 -188.383347 -224.864899 21.052242 90.982788 1.525373 -152.796585 294.101532
[R_Toe2_01]
22 200.637817 -220.002121 -148.787384 -103.553940 10.905462 -51.874760 332.857574
23 200.637817 -220.002121 -148.787384 -103.874542 10.464578 -53.656158 332.857574
24 200.637817 -220.002121 -148.787384 -104.180511 10.014239 -55.432076 332.857574
[R_Toe3_01]
22 188.606735 -220.092957 191.126343 -72.279854 -13.793860 -53.771175 347.192566
23 188.606735 -220.092957 191.126343 -71.783806 -13.400851 -55.648376 347.192566
24 188.606735 -220.092957 191.126343 -71.302284 -12.992500 -57.517941 347.192566
[planeLockWeightRight]
22 999.999329 0.000291 -0.000270 -0.011823 -0.004379 -0.000027 999.999329
23 999.999268 0.000298 -0.000283 -0.011823 -0.004379 -0.000027 999.999268
24 999.999207 0.000305 -0.000296 -0.011823 -0.004379 -0.000027 999.999207
[R_Toe1_02]
22 413.762085 0.000477 -0.000119 0.001399 -24.037163 0.001399 413.762085
23 413.762085 0.000477 -0.000119 0.001395 -24.545828 0.001395 413.762085
24 413.762085 0.000477 -0.000119 0.001391 -25.054497 0.001391 413.762085
[R_Toe1_03]
22 464.317810 0.000000 0.001088 0.008108 73.341576 0.008108 464.317810
23 464.317810 0.000000 0.001088 0.006776 70.035942 0.006776 464.317810
24 464.317810 0.000000 0.001088 0.005820 66.733040 0.005820 464.317810
[R_Toe2_02]
22 342.234741 -0.000954 0.000238 -0.002344 -74.847580 -0.002344 342.234741
23 342.234741 -0.000954 0.000238 -0.002345 -74.406815 -0.002345 342.234741
24 342.234741 -0.000954 0.000238 0.001186 -73.607925 0.001186 342.234741
[R_Toe2_03]
22 420.210846 0.000715 -0.000268 -179.978027 86.742020 -179.981537 420.210846
23 420.210846 0.000715 -0.000268 -179.935730 88.946312 -179.939240 420.210846
24 420.210846 0.000715 -0.000268 -0.055492 88.849030 -0.058988 420.210846
[R_Toe3_02]
22 329.270355 -0.000477 -0.000954 0.001179 -78.927742 0.001179 329.270355
23 329.270355 -0.000477 -0.000954 0.001180 -78.198097 0.001180 329.270355
24 329.270355 -0.000477 -0.000954 0.001181 -77.468376 0.001181 329.270355
[R_Toe3_03]
22 439.137939 0.000238 0.001431 -179.990479 84.150246 -179.986984 439.137939
23 439.137939 0.000238 0.001431 -179.984207 86.246468 -179.980698 439.137939
24 439.137939 0.000238 0.001431 -179.948959 88.752434 -179.945465 439.137939
[Rear_Leg02]
22 1162.777710 -0.029802 0.005960 28.223782 -13.664056 -108.332016 1162.777710
23 1162.777710 -0.029802 0.005960 29.563576 -7.844912 -117.062836 1162.777710
24 1162.777710 -0.029802 0.005960 29.493298 -1.577661 -127.245583 1162.777710
[Rear_Leg03]
22 607.192505 -0.013351 -0.073195 0.009963 -0.006076 79.115715 607.192505
23 607.192505 -0.013351 -0.073195 0.009885 -0.006200 80.543030 607.192505
24 607.192505 -0.013351 -0.073195 0.009841 -0.006269 81.349213 607.192505
[Rear_Leg04]
22 995.874512 -0.020504 -0.011921 -0.044155 -0.014665 97.412498 995.874573
23 995.874512 -0.020504 -0.011921 -0.042131 -0.015327 105.837120 995.874573
24 995.874512 -0.020504 -0.011921 -0.043208 -0.011959 114.876175 995.874573
[Rear_Foot]
22 3096.176270 -0.067472 -0.041425 -88.615509 65.733925 26.215887 3096.176270
23 3096.176270 -0.067472 -0.041425 -77.021484 63.882999 46.115528 3096.176270
24 3096.176270 -0.067472 -0.041425 -70.138031 61.304344 66.117447 3096.176270
[planeAlignerCenter]
22 0.306471 262.257721 -759.744751 0.001660 -0.001660 179.998337 803.735840
23 2.502433 273.538086 -756.703247 0.001660 -0.001660 179.998337 804.629822
24 5.098891 281.512451 -756.150513 0.001660 -0.001660 179.998337 806.869751
[Rear_Toe1_01]
22 0.653352 83.966492 -371.173737 0.099633 39.600452 90.046104 380.553192
23 0.653352 83.966492 -371.173737 0.097581 39.576920 90.043907 380.553192
24 0.653352 83.966492 -371.173737 0.095541 39.553379 90.041725 380.553192
[Rear_Toe2_01]
22 178.200760 -294.826019 -362.060547 78.700630 84.511238 8.055674 499.765686
23 178.200760 -294.826019 -362.060547 93.669273 83.994820 23.053179 499.765686
24 178.200760 -294.826019 -362.060547 105.600433 83.143959 35.013237 499.765686
[Rear_Toe3_01]
22 -153.359680 -308.780914 -362.060852 -78.613724 83.768227 169.836319 499.952881
23 -153.359680 -308.780914 -362.060852 -91.835152 83.214996 156.584137 499.952881
24 -153.359680 -308.780914 -362.060852 -102.588028 82.362411 145.800308 499.952881
[planeLockWeightCenter]
22 1000.000122 0.000388 -0.000024 -0.011814 -0.004373 -0.000015 1000.000122
23 1000.000122 0.000375 -0.000012 -0.011814 -0.004373 -0.000015 1000.000122
24 1000.000122 0.000362 -0.000000 -0.011814 -0.004373 -0.000015 1000.000122
[Rear_Toe1_02]
22 379.707825 0.194073 0.000477 -0.002649 -32.536392 -0.002649 379.707855
23 379.707825 0.194073 0.000477 -0.002646 -32.814693 -0.002646 379.707855
24 379.707825 0.194073 0.000477 -0.002642 -33.092999 -0.002642 379.707855
[Rear_Toe1_03]
22 500.129700 0.165701 0.000119 -179.969101 87.739380 -179.972610 500.129761
23 500.129700 0.165701 0.000119 -0.090259 89.283447 -0.093757 500.129761
24 500.129700 0.165701 0.000119 -0.016090 86.307526 -0.019589 500.129761
[Rear_Toe2_02]
22 340.494507 0.000238 -0.000954 179.998825 -87.300789 179.998825 340.494507
23 340.494507 0.000238 -0.000954 179.998825 -87.158684 179.998825 340.494507
24 340.494507 0.000238 -0.000954 179.998825 -87.016792 179.998825 340.494507
[Rear_Toe2_03]
22 433.103577 0.000000 0.000238 -179.996262 54.789330 -179.999939 433.103546
23 433.103577 0.000000 0.000238 -179.996292 54.240398 -179.999969 433.103546
24 433.103577 0.000000 0.000238 -179.996323 53.691456 -180.000000 433.103546
[Rear_Toe3_02]
22 340.494141 -0.000358 -0.000477 -179.995941 -87.372292 -179.995941 340.494171
23 340.494141 -0.000358 -0.000477 -179.995041 -87.218430 -179.995041 340.494171
24 340.494141 -0.000358 -0.000477 -179.994171 -87.064552 -179.994171 340.494171
[Rear_Toe3_03]
22 433.103577 0.001431 -0.000238 179.992432 55.064209 179.999756 433.103546
23 433.103577 0.001431 -0.000238 179.992477 54.538700 179.999817 433.103546
24 433.103577 0.001431 -0.000238 179.992523 54.013187 179.999878 433.103546
[Back_Bone]
22 1312.175781 -701.934692 0.000954 -3.076915 1.270129 -84.530739 1488.125488
23 1312.175781 -701.934692 0.000954 -3.241300 0.793389 -84.820435 1488.125488
24 1312.175781 -701.934692 0.000954 -3.327602 0.046320 -84.752220 1488.125488
[Head]
22 1406.159424 809.709290 0.001431 6.477504 -3.195096 2.576394 1622.625488
23 1406.159424 809.709290 0.001431 6.215426 -3.231991 2.219590 1622.625488
24 1406.159424 809.709290 0.001431 5.953578 -3.270514 1.862950 1622.625488
[Motor_Bone]
22 1158.364380 -417.834747 0.000477 -5.513650 1.191243 -104.796593 1231.419434
23 1158.364380 -417.834747 0.000477 -3.495553 0.584008 -105.401466 1231.419434
24 1158.364380 -417.834747 0.000477 0.251848 -0.541806 -106.527901 1231.419434
[Ping_Mechanism]
22 1254.601318 -456.223755 34.068680 0.000103 -0.000053 82.120995 1335.412109
23 1239.529175 -448.906281 23.442080 0.000103 -0.000053 82.120995 1318.521484
24 1221.556396 -438.015747 8.385801 0.000103 -0.000053 82.120995 1297.739624
[BN_LookIK]
22 193.241119 1380.371704 -0.002861 0.000000 89.965736 -31.038179 1393.832153
23 193.241119 1380.371704 -0.002861 0.000000 89.965736 -31.038179 1393.832153
24 193.241119 1380.371704 -0.002861 0.000000 89.965736 -31.038179 1393.832153
[bottomMouth]
22 -435.092926 615.759399 -0.000954 -0.000022 0.000016 73.527184 753.966492
23 -435.092926 615.759399 -0.000954 -0.000022 0.000016 73.527184 753.966492
24 -435.092926 615.759399 -0.000954 -0.000022 0.000016 73.527184 753.966492
[L_Mouth01]
22 554.440979 7.658243 838.222046 150.204178 23.759130 109.605339 1005.027161
23 554.440979 7.658243 838.222046 150.204178 23.759130 109.605339 1005.027161
24 554.440979 7.658243 838.222046 150.204178 23.759130 109.605339 1005.027161
[L_mouthFront]
22 551.629089 934.514771 339.150421 0.000081 2.804060 79.119301 1136.941284
23 551.629089 934.514771 339.150421 0.000081 2.804060 79.119301 1136.941284
24 551.629089 934.514771 339.150421 0.000081 2.804060 79.119301 1136.941284
[mouthGun]
22 55.332661 1627.420898 0.000000 0.000023 0.000009 -11.038128 1628.361328
23 55.332661 1627.420898 0.000000 0.000023 0.000009 -11.038128 1628.361328
24 55.332661 1627.420898 0.000000 0.000023 0.000009 -11.038128 1628.361328
[R_Mouth01]
22 554.442383 7.659197 -838.223938 29.795891 -23.759109 109.605331 1005.029541
23 554.442383 7.659197 -838.223938 29.795891 -23.759109 109.605331 1005.029541
24 554.442383 7.659197 -838.223938 29.795891 -23.759109 109.605331 1005.029541
[R_mouthFront]
22 551.629089 934.514282 -339.151367 0.000029 -2.803930 79.119133 1136.941162
23 551.629089 934.514282 -339.151367 0.000029 -2.803930 79.119133 1136.941162
24 551.629089 934.514282 -339.151367 0.000029 -2.803930 79.119133 1136.941162
[TopMouth]
22 461.269867 -56.106091 -0.008583 -0.000059 -0.000268 92.025169 464.669525
23 461.269867 -56.106091 -0.008583 -0.000059 -0.000268 92.025169 464.669525
24 461.269867 -56.106091 -0.008583 -0.000059 -0.000268 92.025169 464.669525
[weapon_bone]
22 -987.239868 1448.372803 0.001431 0.000000 89.965736 -31.038221 1752.833740
23 -987.239868 1448.372803 0.001431 0.000000 89.965736 -31.038221 1752.833740
24 -987.239868 1448.372803 0.001431 0.000000 89.965736 -31.038221 1752.833740
